HIERARCHY
ROOT Hips
{
	OFFSET -3.958830 18.904000 13.208200
	CHANNELS 6 Xposition Yposition Zposition Zrotation Yrotation Xrotation 
	JOINT LHipJoint
	{
		OFFSET 0.000000 0.000000 0.000000
		CHANNELS 3 Zrotation Yrotation Xrotation
		JOINT LeftUpLeg
		{
			OFFSET 1.800000 -1.400000 0.085000
			CHANNELS 3 Zrotation Yrotation Xrotation
			JOINT LeftLeg
			{
				OFFSET 2.215000 -6.000000 0.000000
				CHANNELS 3 Zrotation Yrotation Xrotation
				JOINT LeftFoot
				{
					OFFSET 2.500000 -6.900000 0.000000
					CHANNELS 3 Zrotation Yrotation Xrotation
					JOINT LeftToeBase
					{
						OFFSET 0.200000 -0.500000 1.950000
						CHANNELS 3 Zrotation Yrotation Xrotation
						End Site
						{
							OFFSET 0.000000 0.000000 0.000000
						}
					}
				}
			}
		}
	}
	JOINT RHipJoint
	{
		OFFSET 0.000000 0.000000 0.000000
		CHANNELS 3 Zrotation Yrotation Xrotation
		JOINT RightUpLeg
		{
			OFFSET -1.800000 -1.400000 0.085000
			CHANNELS 3 Zrotation Yrotation Xrotation
			JOINT RightLeg
			{
				OFFSET -2.215000 -6.000000 0.000000
				CHANNELS 3 Zrotation Yrotation Xrotation
				JOINT RightFoot
				{
					OFFSET -2.500000 -6.900000 0.000000
					CHANNELS 3 Zrotation Yrotation Xrotation
					JOINT RightToeBase
					{
						OFFSET -0.200000 -0.500000 1.950000
						CHANNELS 3 Zrotation Yrotation Xrotation
						End Site
						{
							OFFSET 0.000000 0.000000 0.000000
						}
					}
				}
			}
		}
	}
	JOINT LowerBack
	{
		OFFSET 0.000000 0.000000 0.000000
		CHANNELS 3 Zrotation Yrotation Xrotation
		JOINT Spine
		{
			OFFSET -0.087000 1.940000 -0.288900
			CHANNELS 3 Zrotation Yrotation Xrotation
			JOINT Spine1
			{
				OFFSET 0.000000 1.950000 0.060000
				CHANNELS 3 Zrotation Yrotation Xrotation
				JOINT Neck
				{
					OFFSET 0.000000 0.000000 0.000000
					CHANNELS 3 Zrotation Yrotation Xrotation
					JOINT Neck1
					{
						OFFSET 0.000000 1.600000 0.340000
						CHANNELS 3 Zrotation Yrotation Xrotation
						JOINT Head
						{
							OFFSET 0.000000 1.667000 -0.240000
							CHANNELS 3 Zrotation Yrotation Xrotation
							End Site
							{
								OFFSET 0.000000 0.000000 0.000000
							}
						}
					}
				}
				JOINT LeftShoulder
				{
					OFFSET 0.000000 0.000000 0.000000
					CHANNELS 3 Zrotation Yrotation Xrotation
					JOINT LeftArm
					{
						OFFSET 2.700000 1.550000 -0.730000
						CHANNELS 3 Zrotation Yrotation Xrotation
						JOINT LeftForeArm
						{
							OFFSET 5.450000 0.000000 0.000000
							CHANNELS 3 Zrotation Yrotation Xrotation
							JOINT LeftHand
							{
								OFFSET 3.450000 0.000000 0.000000
								CHANNELS 3 Zrotation Yrotation Xrotation
								JOINT LeftHandIndex1
								{
									OFFSET 0.750000 0.000000 0.000000
									CHANNELS 3 Zrotation Yrotation Xrotation
									End Site
									{
										OFFSET 0.000000 0.000000 0.000000
									}
								}
							}
						}
					}
				}
				JOINT RightShoulder
				{
					OFFSET 0.000000 0.000000 0.000000
					CHANNELS 3 Zrotation Yrotation Xrotation
					JOINT RightArm
					{
						OFFSET -2.700000 1.550000 -0.730000
						CHANNELS 3 Zrotation Yrotation Xrotation
						JOINT RightForeArm
						{
							OFFSET -5.450000 0.000000 0.000000
							CHANNELS 3 Zrotation Yrotation Xrotation
							JOINT RightHand
							{
								OFFSET -3.450000 0.000000 0.000000
								CHANNELS 3 Zrotation Yrotation Xrotation
								JOINT RightHandIndex1
								{
									OFFSET -0.750000 0.000000 0.000000
									CHANNELS 3 Zrotation Yrotation Xrotation
									End Site
									{
										OFFSET 0.000000 0.000000 0.000000
									}
								}
							}
						}
					}
				}
			}
		}
	}
}
MOTION
Frames: 9
Frame Time: 0.016667
-0.300290 17.339990 -9.911390 -3.392277 -10.368610 -3.280087 -13.941477 11.210924 2.521685 3.373705 -1.158884 -14.959467 -6.232732 4.290144 9.305161 -0.680782 2.861780 3.731324 0.466010 0.312080 0.347240 19.421714 -12.931213 3.676806 -3.988306 -0.015218 -1.769272 13.176783 -6.211745 6.486728 -0.676132 -4.986447 2.806590 0.192160 0.268590 0.228390 -6.930353 5.561805 -7.528977 29.884405 7.089605 4.414594 1.638065 3.018463 22.850327 5.304709 2.118824 -19.569813 11.095258 -5.057006 48.411083 -9.198070 -0.077130 -4.376120 -8.466390 -21.842413 10.385424 -61.918584 -2.091242 -5.005444 -22.079451 -23.149204 0.330540 -3.792952 3.004432 0.328530 0.247910 -0.032800 0.157880 0.240864 26.111148 13.156421 60.940142 60.856055 22.607408 1.742223 47.056792 -0.939563 1.617016 -1.711872 -0.082920 0.271400 -0.030370 -0.142230 
-0.305430 17.332010 -9.912200 -3.261177 -10.112034 -3.334851 -13.968324 11.257973 2.513458 3.426914 -1.148511 -14.994987 -6.145042 4.345249 9.636603 -0.709787 2.901536 3.695501 0.429700 0.266130 0.326210 19.393654 -12.916444 3.631110 -4.048544 -0.015886 -2.179401 13.155999 -6.348574 7.140228 -0.654327 -4.960962 2.810682 0.168020 0.265140 0.230830 -6.850059 5.450653 -7.478613 29.461509 7.155580 4.437112 1.742240 3.255610 22.003000 4.905113 2.409307 -19.022331 11.622495 -5.246019 48.542792 -9.117700 0.279730 -4.514570 -8.578806 -22.341553 10.880052 -60.344528 -1.862070 -5.727854 -22.868195 -27.165092 1.065957 -3.787245 3.015752 0.354310 0.249850 -0.038140 0.126480 0.991635 26.201855 11.983671 60.938652 57.293942 20.904645 2.893395 43.865137 -0.406468 1.657520 -1.668214 -0.097700 0.265280 0.012490 -0.163110 
-0.307990 17.317820 -9.915590 -3.266119 -10.053594 -3.187651 -13.976620 11.269940 2.490922 3.618929 -1.165175 -15.377021 -6.032706 4.433981 10.304165 -0.713566 2.930062 3.673754 0.405810 0.239980 0.308180 19.385538 -12.940613 3.598764 -3.909984 -0.021443 -2.758592 13.058190 -6.424548 7.728027 -0.623323 -4.945105 2.810466 0.156330 0.269250 0.236850 -6.827034 5.482540 -7.418356 29.139067 7.241586 4.313353 1.603565 3.580632 21.254764 4.619676 2.721323 -18.307690 12.047166 -5.222101 47.532849 -9.334960 0.852400 -3.862590 -8.610427 -22.290157 11.190243 -58.742112 -1.616770 -6.713194 -23.233637 -33.168957 2.165400 -3.773698 3.086884 0.339300 0.268940 -0.058880 0.111650 1.495148 25.839345 10.776895 61.024968 53.899909 19.305874 4.074223 40.826724 -0.039736 1.706519 -1.675360 -0.100130 0.238070 0.029050 -0.171470 
-0.320110 17.305590 -9.919960 -3.180199 -9.985750 -3.134173 -14.001822 11.287738 2.480300 3.788492 -1.177799 -15.868626 -6.073283 4.556130 10.943504 -0.723785 2.995157 3.645519 0.383980 0.199630 0.310580 19.362794 -12.936097 3.566695 -3.807088 -0.019120 -3.200569 12.971668 -6.489008 8.151258 -0.600305 -4.933056 2.812125 0.137790 0.278810 0.257680 -6.760747 5.451873 -7.366706 28.223194 7.370179 4.448507 1.793984 3.937223 20.382733 4.419692 3.203217 -17.588069 12.762923 -5.438399 46.467633 -9.999950 1.504960 -3.323780 -9.177351 -22.287075 11.367298 -57.059813 -1.592227 -7.306010 -24.630848 -38.046824 3.458392 -3.787682 3.130830 0.336620 0.295880 -0.072270 0.097930 2.353640 25.472708 9.655364 60.499921 50.138557 17.243509 5.165617 37.796404 0.266603 1.741640 -1.660700 -0.107640 0.217350 0.045050 -0.188290 
-0.340880 17.304800 -9.926280 -3.281090 -9.951506 -3.403392 -14.022662 11.347232 2.464525 4.340744 -1.109549 -16.363342 -6.304071 4.820501 11.994961 -0.719937 3.097225 3.583892 0.402630 0.210200 0.337870 19.340380 -12.916348 3.549909 -3.445090 -0.151621 -3.173328 12.584932 -6.468628 8.319946 -0.609465 -4.897704 2.809880 0.138710 0.249400 0.275400 -6.694631 5.320551 -7.340193 27.811826 7.312829 4.985243 1.474861 4.280501 19.793496 4.406565 3.341788 -16.892548 12.720236 -5.426793 46.326273 -10.307240 1.981040 -3.709900 -10.317793 -22.413569 11.444675 -54.909037 -1.855854 -7.666719 -26.889997 -42.223525 5.032015 -3.770520 3.177404 0.352600 0.286680 -0.053320 0.089240 3.473224 25.500714 8.811235 59.359527 46.607305 14.979689 6.535536 34.798380 0.622099 1.782058 -1.640707 -0.095190 0.190730 0.037840 -0.203800 
-0.359200 17.298250 -9.933100 -3.317723 -9.926789 -3.684196 -14.048293 11.433955 2.476474 4.707370 -1.098788 -17.141740 -6.457696 5.099039 13.241255 -0.709258 3.216771 3.540143 0.394160 0.197760 0.330290 19.307031 -12.880947 3.519670 -3.193897 -0.211873 -3.200347 12.369360 -6.561096 9.013014 -0.607029 -4.889824 2.821277 0.132280 0.259220 0.272820 -6.604530 5.096045 -7.334621 27.293915 7.083535 5.658721 0.919033 4.586875 19.195324 4.312213 3.279360 -16.242441 12.124723 -5.066563 46.316518 -10.256530 2.444120 -3.517730 -11.458878 -22.543396 11.459994 -53.004371 -2.281123 -7.938572 -29.646202 -46.378023 6.962697 -3.766872 3.198757 0.361750 0.291850 -0.054830 0.099060 4.700799 25.618123 8.216692 58.249087 43.249183 12.806162 7.915155 32.275353 0.882539 1.814940 -1.609491 -0.107180 0.196290 0.035720 -0.206890 
-0.380910 17.292790 -9.932730 -3.388144 -9.536913 -4.064467 -14.094284 11.586418 2.502577 4.863407 -1.168903 -18.194376 -6.185808 5.332018 14.863703 -0.694159 3.348543 3.498382 0.353590 0.141760 0.289640 19.254392 -12.775102 3.492378 -2.881573 -0.382565 -2.858552 12.127949 -6.621191 9.350135 -0.595496 -4.868945 2.855708 0.097130 0.295470 0.255500 -6.454051 4.620703 -7.352367 26.541193 6.616942 6.411813 0.717181 4.666607 18.437152 3.803173 2.775931 -15.736881 10.431184 -4.566593 47.295424 -9.325090 2.306640 -2.889270 -12.338446 -22.639897 11.571996 -52.247270 -2.848334 -8.331421 -32.679518 -51.691712 9.405045 -3.761075 3.211063 0.378880 0.292420 -0.074630 0.105940 6.405690 25.812435 7.739662 56.707566 39.517404 10.588971 9.700216 29.757438 1.252734 1.857079 -1.538585 -0.132340 0.221960 0.058850 -0.201930 
-0.401270 17.294240 -9.924680 -3.686888 -8.956333 -4.459546 -14.140962 11.769754 2.526409 4.965424 -1.307349 -19.434134 -5.337966 5.456814 16.886984 -0.683835 3.461682 3.451604 0.313880 0.092170 0.247310 19.203327 -12.635922 3.484125 -2.334652 -0.631038 -2.296518 11.976923 -6.651912 9.394487 -0.588828 -4.839138 2.892685 0.064180 0.313150 0.223960 -6.303010 4.045034 -7.379534 26.100532 6.012260 7.105396 0.066465 4.688671 17.508615 3.382800 2.143329 -15.271248 8.284484 -4.026102 48.771364 -8.277880 2.068560 -2.308790 -13.985168 -22.522679 11.714350 -51.351996 -3.290064 -8.520115 -36.940183 -58.332877 13.295321 -3.746620 3.227457 0.401860 0.278740 -0.092150 0.104540 8.607656 25.785387 7.410589 55.436542 35.558433 8.502603 11.313247 27.378134 1.486189 1.904105 -1.465560 -0.157090 0.242970 0.081740 -0.201870 
-0.427200 17.285710 -9.912700 -3.775433 -8.249072 -4.809824 -14.213820 11.923083 2.616242 4.858663 -1.623437 -21.140555 -4.807444 5.638884 18.985028 -0.666950 3.624864 3.372759 0.261900 0.035050 0.192690 19.133188 -12.462167 3.439688 -1.948326 -0.887211 -1.670608 11.807570 -6.764840 9.837794 -0.571311 -4.837635 2.910198 0.029890 0.335980 0.192210 -6.092831 3.407958 -7.421441 24.743447 5.499032 7.789498 -0.297301 4.736482 16.468143 2.841239 1.604066 -14.759233 6.171410 -3.335290 49.929258 -6.665680 1.800470 -1.601290 -15.406744 -22.110300 11.661918 -51.193696 -4.500482 -7.952052 -43.255919 -65.111900 19.279157 -3.767177 3.254112 0.411780 0.269660 -0.121270 0.088390 10.826100 25.344487 7.123301 54.749690 31.912073 6.890200 12.429401 24.814545 1.533846 1.958427 -1.396976 -0.179920 0.255700 0.120280 -0.199410 
